<?xml version="1.0" encoding="utf-8" standalone="no"?>
<!DOCTYPE svg PUBLIC "-//W3C//DTD SVG 1.1//EN"
  "http://www.w3.org/Graphics/SVG/1.1/DTD/svg11.dtd">
<svg xmlns:xlink="http://www.w3.org/1999/xlink" width="238.100156pt" height="243.524062pt" viewBox="0 0 238.100156 243.524062" xmlns="http://www.w3.org/2000/svg" version="1.1">
 <metadata>
  <rdf:RDF xmlns:dc="http://purl.org/dc/elements/1.1/" xmlns:cc="http://creativecommons.org/ns#" xmlns:rdf="http://www.w3.org/1999/02/22-rdf-syntax-ns#">
   <cc:Work>
    <dc:type rdf:resource="http://purl.org/dc/dcmitype/StillImage"/>
    <dc:date>2025-12-31T08:01:31.048038</dc:date>
    <dc:format>image/svg+xml</dc:format>
    <dc:creator>
     <cc:Agent>
      <dc:title>Matplotlib v3.10.8, https://matplotlib.org/</dc:title>
     </cc:Agent>
    </dc:creator>
   </cc:Work>
  </rdf:RDF>
 </metadata>
 <defs>
  <style type="text/css">*{stroke-linejoin: round; stroke-linecap: butt}</style>
 </defs>
 <g id="figure_1">
  <g id="patch_1">
   <path d="M 0 243.524062 
L 238.100156 243.524062 
L 238.100156 0 
L 0 0 
L 0 243.524062 
z
" style="fill: none"/>
  </g>
  <g id="axes_1">
   <g id="patch_2">
    <path d="M 127.315938 102.352894 
L 144.700368 57.064908 
L 119.865469 24.742031 
L 95.03057 57.064908 
L 112.414999 102.352894 
z
" clip-path="url(#p56ee7dee0f)" style="fill: #9fb7ff; stroke: #333333; stroke-width: 3"/>
   </g>
   <g id="patch_3">
    <path d="M 138.858079 113.305976 
L 183.174169 93.575182 
L 182.588669 59.038831 
L 148.052318 58.453331 
L 128.321524 102.769421 
z
" clip-path="url(#p56ee7dee0f)" style="fill: #9fb7ff; stroke: #333333; stroke-width: 3"/>
   </g>
   <g id="patch_4">
    <path d="M 139.274606 129.212501 
L 184.562592 146.59693 
L 216.885469 121.762031 
L 184.562592 96.927132 
L 139.274606 114.311562 
z
" clip-path="url(#p56ee7dee0f)" style="fill: #9fb7ff; stroke: #333333; stroke-width: 3"/>
   </g>
   <g id="patch_5">
    <path d="M 128.321524 140.754641 
L 148.052318 185.070731 
L 182.588669 184.485231 
L 183.174169 149.948881 
L 138.858079 130.218086 
z
" clip-path="url(#p56ee7dee0f)" style="fill: #9fb7ff; stroke: #333333; stroke-width: 3"/>
   </g>
   <g id="patch_6">
    <path d="M 112.414999 141.171168 
L 95.03057 186.459155 
L 119.865469 218.782031 
L 144.700368 186.459155 
L 127.315938 141.171168 
z
" clip-path="url(#p56ee7dee0f)" style="fill: #9fb7ff; stroke: #333333; stroke-width: 3"/>
   </g>
   <g id="patch_7">
    <path d="M 100.872859 130.218086 
L 56.556769 149.948881 
L 57.142269 184.485231 
L 91.678619 185.070731 
L 111.409414 140.754641 
z
" clip-path="url(#p56ee7dee0f)" style="fill: #9fb7ff; stroke: #333333; stroke-width: 3"/>
   </g>
   <g id="patch_8">
    <path d="M 100.456332 114.311562 
L 55.168345 96.927132 
L 22.845469 121.762031 
L 55.168345 146.59693 
L 100.456332 129.212501 
z
" clip-path="url(#p56ee7dee0f)" style="fill: #9fb7ff; stroke: #333333; stroke-width: 3"/>
   </g>
   <g id="patch_9">
    <path d="M 111.409414 102.769421 
L 91.678619 58.453331 
L 57.142269 59.038831 
L 56.556769 93.575182 
L 100.872859 113.305976 
z
" clip-path="url(#p56ee7dee0f)" style="fill: #9fb7ff; stroke: #333333; stroke-width: 3"/>
   </g>
   <g id="patch_10">
    <path d="M 119.865469 126.335831 
C 121.078455 126.335831 122.241923 125.853907 123.099634 124.996196 
C 123.957344 124.138486 124.439269 122.975017 124.439269 121.762031 
C 124.439269 120.549045 123.957344 119.385577 123.099634 118.527866 
C 122.241923 117.670156 121.078455 117.188231 119.865469 117.188231 
C 118.652483 117.188231 117.489014 117.670156 116.631304 118.527866 
C 115.773593 119.385577 115.291669 120.549045 115.291669 121.762031 
C 115.291669 122.975017 115.773593 124.138486 116.631304 124.996196 
C 117.489014 125.853907 118.652483 126.335831 119.865469 126.335831 
z
" clip-path="url(#p56ee7dee0f)" style="fill: #333333; stroke: #333333; stroke-linejoin: miter"/>
   </g>
   <g id="text_1">
    <!-- N -->
    <g style="fill: #333333" transform="translate(112.010156 16.676719) scale(0.21 -0.21)">
     <defs>
      <path id="DejaVuSans-4e" d="M 628 4666 
L 1478 4666 
L 3547 763 
L 3547 4666 
L 4159 4666 
L 4159 0 
L 3309 0 
L 1241 3903 
L 1241 0 
L 628 0 
L 628 4666 
z
" transform="scale(0.015625)"/>
     </defs>
     <use xlink:href="#DejaVuSans-4e"/>
    </g>
   </g>
   <g id="text_2">
    <!-- NE -->
    <g style="fill: #333333" transform="translate(183.779469 49.152719) scale(0.21 -0.21)">
     <defs>
      <path id="DejaVuSans-45" d="M 628 4666 
L 3578 4666 
L 3578 4134 
L 1259 4134 
L 1259 2753 
L 3481 2753 
L 3481 2222 
L 1259 2222 
L 1259 531 
L 3634 531 
L 3634 0 
L 628 0 
L 628 4666 
z
" transform="scale(0.015625)"/>
     </defs>
     <use xlink:href="#DejaVuSans-4e"/>
     <use xlink:href="#DejaVuSans-45" transform="translate(74.804688 0)"/>
    </g>
   </g>
   <g id="text_3">
    <!-- E -->
    <g style="fill: #333333" transform="translate(224.110781 127.556719) scale(0.21 -0.21)">
     <use xlink:href="#DejaVuSans-45"/>
    </g>
   </g>
   <g id="text_4">
    <!-- SE -->
    <g style="fill: #333333" transform="translate(184.968922 205.960719) scale(0.21 -0.21)">
     <defs>
      <path id="DejaVuSans-53" d="M 3425 4513 
L 3425 3897 
Q 3066 4069 2747 4153 
Q 2428 4238 2131 4238 
Q 1616 4238 1336 4038 
Q 1056 3838 1056 3469 
Q 1056 3159 1242 3001 
Q 1428 2844 1947 2747 
L 2328 2669 
Q 3034 2534 3370 2195 
Q 3706 1856 3706 1288 
Q 3706 609 3251 259 
Q 2797 -91 1919 -91 
Q 1588 -91 1214 -16 
Q 841 59 441 206 
L 441 856 
Q 825 641 1194 531 
Q 1563 422 1919 422 
Q 2459 422 2753 634 
Q 3047 847 3047 1241 
Q 3047 1584 2836 1778 
Q 2625 1972 2144 2069 
L 1759 2144 
Q 1053 2284 737 2584 
Q 422 2884 422 3419 
Q 422 4038 858 4394 
Q 1294 4750 2059 4750 
Q 2388 4750 2728 4690 
Q 3069 4631 3425 4513 
z
" transform="scale(0.015625)"/>
     </defs>
     <use xlink:href="#DejaVuSans-53"/>
     <use xlink:href="#DejaVuSans-45" transform="translate(63.476562 0)"/>
    </g>
   </g>
   <g id="text_5">
    <!-- S -->
    <g style="fill: #333333" transform="translate(113.199609 238.436719) scale(0.21 -0.21)">
     <use xlink:href="#DejaVuSans-53"/>
    </g>
   </g>
   <g id="text_6">
    <!-- SO -->
    <g style="fill: #333333" transform="translate(26.530141 205.960719) scale(0.21 -0.21)">
     <defs>
      <path id="DejaVuSans-4f" d="M 2522 4238 
Q 1834 4238 1429 3725 
Q 1025 3213 1025 2328 
Q 1025 1447 1429 934 
Q 1834 422 2522 422 
Q 3209 422 3611 934 
Q 4013 1447 4013 2328 
Q 4013 3213 3611 3725 
Q 3209 4238 2522 4238 
z
M 2522 4750 
Q 3503 4750 4090 4092 
Q 4678 3434 4678 2328 
Q 4678 1225 4090 567 
Q 3503 -91 2522 -91 
Q 1538 -91 948 565 
Q 359 1222 359 2328 
Q 359 3434 948 4092 
Q 1538 4750 2522 4750 
z
" transform="scale(0.015625)"/>
     </defs>
     <use xlink:href="#DejaVuSans-53"/>
     <use xlink:href="#DejaVuSans-4f" transform="translate(63.476562 0)"/>
    </g>
   </g>
   <g id="text_7">
    <!-- O -->
    <g style="fill: #333333" transform="translate(0.72 127.556719) scale(0.21 -0.21)">
     <use xlink:href="#DejaVuSans-4f"/>
    </g>
   </g>
   <g id="text_8">
    <!-- NO -->
    <g style="fill: #333333" transform="translate(25.340688 49.152719) scale(0.21 -0.21)">
     <use xlink:href="#DejaVuSans-4e"/>
     <use xlink:href="#DejaVuSans-4f" transform="translate(74.804688 0)"/>
    </g>
   </g>
  </g>
 </g>
 <defs>
  <clipPath id="p56ee7dee0f">
   <rect x="8.985469" y="10.882031" width="221.76" height="221.76"/>
  </clipPath>
 </defs>
</svg>
