<?xml version="1.0" encoding="utf-8" standalone="no"?>
<!DOCTYPE svg PUBLIC "-//W3C//DTD SVG 1.1//EN"
  "http://www.w3.org/Graphics/SVG/1.1/DTD/svg11.dtd">
<svg xmlns:xlink="http://www.w3.org/1999/xlink" width="240.216562pt" height="243.524062pt" viewBox="0 0 240.216562 243.524062" xmlns="http://www.w3.org/2000/svg" version="1.1">
 <metadata>
  <rdf:RDF xmlns:dc="http://purl.org/dc/elements/1.1/" xmlns:cc="http://creativecommons.org/ns#" xmlns:rdf="http://www.w3.org/1999/02/22-rdf-syntax-ns#">
   <cc:Work>
    <dc:type rdf:resource="http://purl.org/dc/dcmitype/StillImage"/>
    <dc:date>2025-09-10T16:50:38.748024</dc:date>
    <dc:format>image/svg+xml</dc:format>
    <dc:creator>
     <cc:Agent>
      <dc:title>Matplotlib v3.10.6, https://matplotlib.org/</dc:title>
     </cc:Agent>
    </dc:creator>
   </cc:Work>
  </rdf:RDF>
 </metadata>
 <defs>
  <style type="text/css">*{stroke-linejoin: round; stroke-linecap: butt}</style>
 </defs>
 <g id="figure_1">
  <g id="patch_1">
   <path d="M 0 243.524062 
L 240.216562 243.524062 
L 240.216562 0 
L 0 0 
L 0 243.524062 
z
" style="fill: none"/>
  </g>
  <g id="axes_1">
   <g id="patch_2">
    <path d="M 129.432345 102.352894 
L 146.816774 57.064908 
L 121.981875 24.742031 
L 97.146976 57.064908 
L 114.531405 102.352894 
z
" clip-path="url(#p5e9dc3016c)" style="fill: #9fb7ff; stroke: #333333; stroke-width: 3"/>
   </g>
   <g id="patch_3">
    <path d="M 140.974485 113.305976 
L 185.290575 93.575182 
L 184.705075 59.038831 
L 150.168724 58.453331 
L 130.43793 102.769421 
z
" clip-path="url(#p5e9dc3016c)" style="fill: #9fb7ff; stroke: #333333; stroke-width: 3"/>
   </g>
   <g id="patch_4">
    <path d="M 141.391012 129.212501 
L 186.678999 146.59693 
L 219.001875 121.762031 
L 186.678999 96.927132 
L 141.391012 114.311562 
z
" clip-path="url(#p5e9dc3016c)" style="fill: #9fb7ff; stroke: #333333; stroke-width: 3"/>
   </g>
   <g id="patch_5">
    <path d="M 130.43793 140.754641 
L 150.168724 185.070731 
L 184.705075 184.485231 
L 185.290575 149.948881 
L 140.974485 130.218086 
z
" clip-path="url(#p5e9dc3016c)" style="fill: #e7e7e7; stroke: #333333; stroke-width: 3"/>
   </g>
   <g id="patch_6">
    <path d="M 114.531405 141.171168 
L 97.146976 186.459155 
L 121.981875 218.782031 
L 146.816774 186.459155 
L 129.432345 141.171168 
z
" clip-path="url(#p5e9dc3016c)" style="fill: #e7e7e7; stroke: #333333; stroke-width: 3"/>
   </g>
   <g id="patch_7">
    <path d="M 102.989265 130.218086 
L 58.673175 149.948881 
L 59.258675 184.485231 
L 93.795026 185.070731 
L 113.52582 140.754641 
z
" clip-path="url(#p5e9dc3016c)" style="fill: #e7e7e7; stroke: #333333; stroke-width: 3"/>
   </g>
   <g id="patch_8">
    <path d="M 102.572738 114.311562 
L 57.284751 96.927132 
L 24.961875 121.762031 
L 57.284751 146.59693 
L 102.572738 129.212501 
z
" clip-path="url(#p5e9dc3016c)" style="fill: #9fb7ff; stroke: #333333; stroke-width: 3"/>
   </g>
   <g id="patch_9">
    <path d="M 113.52582 102.769421 
L 93.795026 58.453331 
L 59.258675 59.038831 
L 58.673175 93.575182 
L 102.989265 113.305976 
z
" clip-path="url(#p5e9dc3016c)" style="fill: #9fb7ff; stroke: #333333; stroke-width: 3"/>
   </g>
   <g id="patch_10">
    <path d="M 121.981875 126.335831 
C 123.194861 126.335831 124.358329 125.853907 125.21604 124.996196 
C 126.073751 124.138486 126.555675 122.975017 126.555675 121.762031 
C 126.555675 120.549045 126.073751 119.385577 125.21604 118.527866 
C 124.358329 117.670156 123.194861 117.188231 121.981875 117.188231 
C 120.768889 117.188231 119.605421 117.670156 118.74771 118.527866 
C 117.889999 119.385577 117.408075 120.549045 117.408075 121.762031 
C 117.408075 122.975017 117.889999 124.138486 118.74771 124.996196 
C 119.605421 125.853907 120.768889 126.335831 121.981875 126.335831 
z
" clip-path="url(#p5e9dc3016c)" style="fill: #333333; stroke: #333333; stroke-linejoin: miter"/>
   </g>
   <g id="text_1">
    <!-- N -->
    <g style="fill: #333333" transform="translate(114.126563 16.676719) scale(0.21 -0.21)">
     <defs>
      <path id="DejaVuSans-4e" d="M 628 4666 
L 1478 4666 
L 3547 763 
L 3547 4666 
L 4159 4666 
L 4159 0 
L 3309 0 
L 1241 3903 
L 1241 0 
L 628 0 
L 628 4666 
z
" transform="scale(0.015625)"/>
     </defs>
     <use xlink:href="#DejaVuSans-4e"/>
    </g>
   </g>
   <g id="text_2">
    <!-- NE -->
    <g style="fill: #333333" transform="translate(185.895875 49.152719) scale(0.21 -0.21)">
     <defs>
      <path id="DejaVuSans-45" d="M 628 4666 
L 3578 4666 
L 3578 4134 
L 1259 4134 
L 1259 2753 
L 3481 2753 
L 3481 2222 
L 1259 2222 
L 1259 531 
L 3634 531 
L 3634 0 
L 628 0 
L 628 4666 
z
" transform="scale(0.015625)"/>
     </defs>
     <use xlink:href="#DejaVuSans-4e"/>
     <use xlink:href="#DejaVuSans-45" transform="translate(74.804688 0)"/>
    </g>
   </g>
   <g id="text_3">
    <!-- E -->
    <g style="fill: #333333" transform="translate(226.227188 127.556719) scale(0.21 -0.21)">
     <use xlink:href="#DejaVuSans-45"/>
    </g>
   </g>
   <g id="text_4">
    <!-- SE -->
    <g style="fill: #333333" transform="translate(187.085328 205.960719) scale(0.21 -0.21)">
     <defs>
      <path id="DejaVuSans-53" d="M 3425 4513 
L 3425 3897 
Q 3066 4069 2747 4153 
Q 2428 4238 2131 4238 
Q 1616 4238 1336 4038 
Q 1056 3838 1056 3469 
Q 1056 3159 1242 3001 
Q 1428 2844 1947 2747 
L 2328 2669 
Q 3034 2534 3370 2195 
Q 3706 1856 3706 1288 
Q 3706 609 3251 259 
Q 2797 -91 1919 -91 
Q 1588 -91 1214 -16 
Q 841 59 441 206 
L 441 856 
Q 825 641 1194 531 
Q 1563 422 1919 422 
Q 2459 422 2753 634 
Q 3047 847 3047 1241 
Q 3047 1584 2836 1778 
Q 2625 1972 2144 2069 
L 1759 2144 
Q 1053 2284 737 2584 
Q 422 2884 422 3419 
Q 422 4038 858 4394 
Q 1294 4750 2059 4750 
Q 2388 4750 2728 4690 
Q 3069 4631 3425 4513 
z
" transform="scale(0.015625)"/>
     </defs>
     <use xlink:href="#DejaVuSans-53"/>
     <use xlink:href="#DejaVuSans-45" transform="translate(63.476562 0)"/>
    </g>
   </g>
   <g id="text_5">
    <!-- S -->
    <g style="fill: #333333" transform="translate(115.316016 238.436719) scale(0.21 -0.21)">
     <use xlink:href="#DejaVuSans-53"/>
    </g>
   </g>
   <g id="text_6">
    <!-- SW -->
    <g style="fill: #333333" transform="translate(26.530141 205.960719) scale(0.21 -0.21)">
     <defs>
      <path id="DejaVuSans-57" d="M 213 4666 
L 850 4666 
L 1831 722 
L 2809 4666 
L 3519 4666 
L 4500 722 
L 5478 4666 
L 6119 4666 
L 4947 0 
L 4153 0 
L 3169 4050 
L 2175 0 
L 1381 0 
L 213 4666 
z
" transform="scale(0.015625)"/>
     </defs>
     <use xlink:href="#DejaVuSans-53"/>
     <use xlink:href="#DejaVuSans-57" transform="translate(63.476562 0)"/>
    </g>
   </g>
   <g id="text_7">
    <!-- W -->
    <g style="fill: #333333" transform="translate(0.72 127.556719) scale(0.21 -0.21)">
     <use xlink:href="#DejaVuSans-57"/>
    </g>
   </g>
   <g id="text_8">
    <!-- NW -->
    <g style="fill: #333333" transform="translate(25.340688 49.152719) scale(0.21 -0.21)">
     <use xlink:href="#DejaVuSans-4e"/>
     <use xlink:href="#DejaVuSans-57" transform="translate(74.804688 0)"/>
    </g>
   </g>
  </g>
 </g>
 <defs>
  <clipPath id="p5e9dc3016c">
   <rect x="11.101875" y="10.882031" width="221.76" height="221.76"/>
  </clipPath>
 </defs>
</svg>
